<?xml version="1.0" encoding="UTF-8"?>
<svg xmlns="http://www.w3.org/2000/svg" version="1.1" viewBox="0 0 566.93 566.93">
  <!-- Generator: Adobe Illustrator 28.6.0, SVG Export Plug-In . SVG Version: 1.2.0 Build 709)  -->
  <g>
    <g id="_圖層_1" data-name="圖層_1">
      <path id="_x33_" d="M283.21,286.85c-17.9,23.02-58.39,26.87-85.16,25.53-23.32-1.17-45-5.34-66.93-13.28-26.89-9.74-48.07,20.7-52.29,43.64-.99,5.41-1.42,10.92-1.37,16.41.15,16.05,3.49,32.18,8.91,47.25,10.11,28.07,29.79,54.85,57.74,69.55,8.95,4.71,24.74,8.95,30.22-2.31,0,0,11.54-23.7,30.78-30.31,25.48-8.75,78.09-27.96,78.09-132.94v-23.54Z" fill="none" stroke="#231815" stroke-miterlimit="10" stroke-width="2"/>
      <path d="M73.26,104.36h6.34v-18.65h-5.34v-3.63c2.95-.56,4.98-1.31,6.85-2.47h4.34v24.75h5.54v4.74h-17.74v-4.74Z" fill="#231815"/>
      <path d="M477.25,105.71c8.01-7.17,12.75-12.71,12.75-17.26,0-2.99-1.63-4.78-4.42-4.78-2.15,0-3.95,1.4-5.42,3.03l-3.19-3.19c2.71-2.87,5.34-4.46,9.37-4.46,5.58,0,9.29,3.59,9.29,9.09s-4.42,11.08-9.8,16.34c1.47-.16,3.43-.32,4.78-.32h6.42v4.94h-19.77v-3.39Z" fill="#231815"/>
      <path d="M145.01,461.55l2.75-3.71c1.75,1.71,3.91,3.03,6.58,3.03,2.99,0,5.02-1.47,5.02-4.11,0-2.91-1.71-4.7-8.13-4.7v-4.22c5.42,0,7.17-1.87,7.17-4.5,0-2.31-1.43-3.67-3.95-3.71-2.11.04-3.83,1.04-5.58,2.63l-2.99-3.59c2.55-2.23,5.38-3.63,8.85-3.63,5.7,0,9.57,2.79,9.57,7.85,0,3.19-1.79,5.5-4.94,6.74v.2c3.35.92,5.9,3.39,5.9,7.25,0,5.42-4.74,8.57-10.36,8.57-4.66,0-7.81-1.75-9.88-4.1Z" fill="#231815"/>
      <path d="M425.15,457.45h-3.51v7.65h-5.46v-7.65h-12.55v-3.99l11-17.86h7.01v17.38h3.51v4.46ZM416.18,452.98v-6.02c0-1.71.16-4.38.24-6.1h-.16c-.72,1.55-1.51,3.19-2.35,4.78l-4.58,7.33h6.86Z" fill="#231815"/>
      <path id="_x31_" d="M157.28,306.8c-17.07-3.62-34.71-11.95-34.71-11.95-12.89-6.04-24.95-14.78-32.51-27.06s-7.67-25.14-7.46-39.2c.42-27.46-2.07-56.38-9.23-82.99-.46-1.71-.94-3.42-1.51-5.1-7.19-15.16-19.32-28.87-24.78-44.94-6.62-19.48,14.34-36.42,28.3-35.32,34.08,2.68,190.33,58.23,208.35,154.8l-.51,69.79v2.03c-17.9,23.02-58.39,26.87-85.16,25.53-13.86-.7-27.14-2.45-40.24-5.43l-.53-.16Z" fill="none" stroke="#231815" stroke-miterlimit="10" stroke-width="2"/>
      <path id="_x34_" d="M283.72,286.85c17.9,23.02,58.39,26.87,85.16,25.53,23.32-1.17,45-5.34,66.93-13.28,26.89-9.74,48.07,20.7,52.29,43.64.99,5.41,1.42,10.92,1.37,16.41-.15,16.05-3.49,32.18-8.91,47.25-10.11,28.07-29.79,54.85-57.74,69.55-8.95,4.71-24.74,8.95-30.22-2.31,0,0-11.54-23.7-30.78-30.31-25.48-8.75-78.09-27.96-78.09-132.94v-23.54Z" fill="none" stroke="#231815" stroke-miterlimit="10" stroke-width="2"/>
      <path id="_x32_" d="M409.65,306.8c17.07-3.62,34.71-11.95,34.71-11.95,12.89-6.04,24.95-14.78,32.51-27.06,7.57-12.3,7.67-25.14,7.46-39.2-.42-27.46,2.07-56.38,9.23-82.99.46-1.71.94-3.42,1.51-5.1,7.19-15.16,19.32-28.87,24.78-44.94,6.62-19.48-14.34-36.42-28.3-35.32-34.08,2.68-189.81,58.23-207.83,154.8v71.82c17.9,23.02,58.39,26.87,85.16,25.53,13.86-.7,27.14-2.45,40.24-5.43l.53-.16Z" fill="none" stroke="#231815" stroke-miterlimit="10" stroke-width="2"/>
    </g>
  </g>
</svg>