<?xml version="1.0" encoding="UTF-8"?>
<svg xmlns="http://www.w3.org/2000/svg" version="1.1" viewBox="0 0 566.93 566.93">
  <!-- Generator: Adobe Illustrator 28.6.0, SVG Export Plug-In . SVG Version: 1.2.0 Build 709)  -->
  <g>
    <g id="_圖層_2" data-name="圖層_2">
      <path d="M77.04,121.3h4.64v-13.67h-3.91v-2.66c2.16-.41,3.65-.96,5.02-1.81h3.18v18.14h4.06v3.48h-13v-3.48Z" fill="#231815"/>
      <path d="M493.67,107.78c-.76-.88-2.07-1.58-3.33-1.58-2.48,0-4.53,1.87-4.7,7.27,1.17-1.43,3.04-2.31,4.44-2.31,3.62,0,6.19,2.16,6.19,6.81s-3.1,7.21-6.78,7.21c-4.12,0-7.77-3.3-7.77-10.92,0-8.06,4-11.51,8.35-11.51,2.63,0,4.56,1.11,5.87,2.45l-2.28,2.57ZM492.33,117.97c0-2.57-1.2-3.77-3.07-3.77-1.17,0-2.45.61-3.53,2.28.41,3.94,1.87,5.46,3.68,5.46,1.61,0,2.92-1.34,2.92-3.97Z" fill="#231815"/>
      <path d="M178.75,204.74c5.87-5.26,9.35-9.32,9.35-12.65,0-2.19-1.2-3.5-3.24-3.5-1.58,0-2.89,1.02-3.97,2.22l-2.34-2.34c1.99-2.1,3.91-3.27,6.86-3.27,4.09,0,6.8,2.63,6.8,6.66s-3.24,8.12-7.18,11.97c1.08-.12,2.51-.23,3.5-.23h4.7v3.62h-14.49v-2.48Z" fill="#231815"/>
      <path d="M371.55,204.68l1.99-2.75c1.23,1.2,2.75,2.19,4.76,2.19,2.25,0,3.83-1.43,3.83-3.97s-1.46-3.91-3.65-3.91c-1.29,0-1.99.32-3.24,1.14l-1.96-1.29.58-10.48h11.57v3.59h-7.86l-.41,4.58c.85-.41,1.61-.61,2.6-.61,3.62,0,6.66,2.16,6.66,6.86s-3.56,7.59-7.56,7.59c-3.42,0-5.7-1.34-7.3-2.95Z" fill="#231815"/>
      <path d="M120.22,366.7l2.02-2.72c1.29,1.26,2.86,2.22,4.82,2.22,2.19,0,3.68-1.08,3.68-3.01,0-2.13-1.26-3.45-5.96-3.45v-3.1c3.97,0,5.26-1.37,5.26-3.3,0-1.69-1.05-2.69-2.89-2.72-1.55.03-2.8.76-4.09,1.93l-2.19-2.63c1.87-1.64,3.94-2.66,6.48-2.66,4.18,0,7.01,2.04,7.01,5.75,0,2.34-1.31,4.03-3.62,4.94v.15c2.45.67,4.32,2.48,4.32,5.32,0,3.97-3.48,6.28-7.59,6.28-3.42,0-5.72-1.29-7.24-3.01Z" fill="#231815"/>
      <path d="M443.76,351.28h-9.73v-3.59h14.37v2.6c-5.02,6.13-5.7,10.54-6.04,19.01h-4.35c.38-7.51,1.63-12.3,5.75-18.02Z" fill="#231815"/>
      <path d="M242.92,425.92h-2.57v5.61h-4v-5.61h-9.2v-2.92l8.06-13.08h5.14v12.73h2.57v3.27ZM236.35,422.65v-4.41c0-1.26.12-3.21.18-4.47h-.12c-.53,1.14-1.11,2.34-1.72,3.5l-3.36,5.37h5.02Z" fill="#231815"/>
      <path d="M342.48,426.15c0-2.77,1.69-4.56,3.71-5.64v-.15c-1.67-1.2-2.86-2.83-2.86-5.14,0-3.48,2.75-5.69,6.51-5.69s6.28,2.31,6.28,5.75c0,2.13-1.34,3.91-2.77,4.94v.15c1.99,1.08,3.62,2.83,3.62,5.78,0,3.27-2.89,5.78-7.27,5.78-4.12,0-7.21-2.4-7.21-5.78ZM352.96,426c0-2.25-1.99-3.18-4.79-4.32-1.17.93-1.99,2.39-1.99,4,0,1.96,1.61,3.21,3.62,3.21,1.81,0,3.15-1.02,3.15-2.89ZM352.61,415.55c0-1.75-1.05-3.01-2.86-3.01-1.46,0-2.63.96-2.63,2.69,0,2.04,1.66,3.04,3.94,3.94,1.05-1.11,1.55-2.34,1.55-3.62Z" fill="#231815"/>
      <path id="_x34_" d="M283.46,363.83h0c-.95-1.44-3.06-2.63-4.38-3.67-18.83-14.8-40.75-26.7-63.57-33.98-15.45-4.93-31.63-7.57-47.85-7.67-3.14-.02-6.29.06-9.43.23-1.5,3.3-18.26,42.76,11.29,93.39,30.22,51.78,74.38,48.05,76.24,47.86,6.2-6.64,11.6-14.03,16.13-21.94,12.93-22.57,19.03-48.52,21.57-74.22,0,0,0,0,0,0h0Z" fill="none" stroke="#231815" stroke-miterlimit="10" stroke-width="2"/>
      <path id="_x33_" d="M169.52,412.13c-29.55-50.63-12.79-90.09-11.29-93.39-5.03.27-10.05.79-15.03,1.57-7.3,1.14-15.05,2.75-21.9,5.61-4.85,2.03-9.41,4.8-13.36,8.27h0c-1.12.99-2.2,2.02-3.22,3.12-9.08,9.86-13.61,25.54-8.21,38.26,4.98,11.73,16.09,19.37,24.19,28.77,4.24,4.93,7.85,10.51,9.28,16.94,1.84,8.27,1.51,16.81,2.9,25.14,1.63,9.82,4.41,19.57,9.99,27.92,4.87,7.28,11.83,13.32,20.09,16.22,19.36,6.79,43.58-2.11,60.47-12.33,8.3-5.02,15.76-11.21,22.33-18.24-1.86.18-46.02,3.92-76.24-47.86Z" fill="none" stroke="#231815" stroke-miterlimit="10" stroke-width="2"/>
      <path id="_x31_" d="M143.19,320.31c4.98-.78,10-1.3,15.03-1.57.07-.15.11-.23.11-.23,0,0-23.98-14.76-23.98-85.79s54.47-77.15,54.47-77.15l1.12-.09c-35.05-35.58-69.72-58.8-84.04-67.62-13.09-8.06-30.78-18.28-46.13-9.51-8.61,4.92-12.95,16.73-14.06,26.39-3.12,27.02,14.33,48.94,19.15,74.17,3.42,17.9,3.1,38.76-.67,56.74-7.3,34.85,4.48,81.76,43.73,98.54h.01c3.95-3.47,8.51-6.24,13.36-8.27,6.85-2.87,14.6-4.48,21.9-5.61Z" fill="none" stroke="#231815" stroke-miterlimit="10" stroke-width="2"/>
      <path id="_x35_" d="M287.85,360.16c18.83-14.8,40.75-26.7,63.57-33.98,15.45-4.93,31.63-7.57,47.85-7.67,3.14-.02,6.29.06,9.43.23-.07-.15-.11-.23-.11-.23,0,0,23.98-14.76,23.98-85.79s-54.47-77.15-54.47-77.15l-1.13-.09c-40.94,41.56-82.42,99.97-92.62,172.02l-.9,36.3v.03c.95-1.44,3.06-2.63,4.38-3.67Z" fill="none" stroke="#231815" stroke-miterlimit="10" stroke-width="2"/>
      <path id="_x32_" d="M134.35,232.72c0,71.03,23.98,85.79,23.98,85.79,0,0-.04.08-.11.23,3.14-.17,6.29-.25,9.43-.23,16.22.11,32.41,2.75,47.85,7.67,22.82,7.28,44.75,19.18,63.57,33.98,1.32,1.04,3.43,2.24,4.38,3.67v-.03s-.89-36.3-.89-36.3c-10.2-72.05-51.68-130.47-92.62-172.03l-1.12.09s-54.47,6.11-54.47,77.15Z" fill="none" stroke="#231815" stroke-miterlimit="10" stroke-width="2"/>
      <path id="_x38_" d="M397.41,412.13c29.55-50.63,12.79-90.09,11.29-93.39-3.14-.17-6.29-.25-9.43-.23-16.22.11-32.41,2.75-47.85,7.67-22.82,7.28-44.75,19.18-63.57,33.98-1.32,1.04-3.43,2.24-4.38,3.67h0s0,0,0,0c0,0,0,0,0,0,2.54,25.7,8.64,51.65,21.57,74.22,4.53,7.91,9.94,15.3,16.13,21.94,1.87.18,46.02,3.92,76.24-47.86Z" fill="none" stroke="#231815" stroke-miterlimit="10" stroke-width="2"/>
      <polygon points="283.46 363.8 283.46 363.83 283.46 363.83 283.47 363.83 283.46 363.8" fill="none" stroke="#231815" stroke-miterlimit="10" stroke-width="2"/>
      <path id="_x36_" d="M502.07,178.91c4.82-25.22,22.27-47.15,19.15-74.17-1.12-9.66-5.45-21.47-14.06-26.39-15.35-8.78-33.03,1.45-46.13,9.51-14.33,8.82-48.99,32.05-84.05,67.63l1.13.09s54.47,6.11,54.47,77.15-23.98,85.79-23.98,85.79c0,0,.04.08.11.23,5.03.27,10.05.79,15.03,1.57,7.3,1.14,15.05,2.75,21.9,5.61,4.85,2.03,9.41,4.8,13.36,8.27h0c39.26-16.78,51.04-63.69,43.73-98.54-3.77-17.98-4.09-38.84-.67-56.74Z" fill="none" stroke="#231815" stroke-miterlimit="10" stroke-width="2"/>
      <path id="_x37_" d="M423.74,320.31c-4.98-.78-10-1.3-15.03-1.57,1.5,3.3,18.26,42.76-11.29,93.39-30.22,51.78-74.37,48.05-76.24,47.86,6.57,7.04,14.04,13.22,22.33,18.24,16.89,10.22,41.11,19.12,60.47,12.33,8.26-2.9,15.22-8.94,20.09-16.22,5.58-8.35,8.36-18.1,9.99-27.92,1.39-8.33,1.07-16.87,2.9-25.14,1.42-6.43,5.03-12.01,9.28-16.94,8.09-9.4,19.21-17.04,24.19-28.77,5.4-12.73.87-28.41-8.21-38.26-1.01-1.1-2.1-2.14-3.22-3.12h0c-3.95-3.47-8.51-6.24-13.36-8.27-6.85-2.87-14.6-4.48-21.9-5.61Z" fill="none" stroke="#231815" stroke-miterlimit="10" stroke-width="2"/>
    </g>
  </g>
</svg>